<svg xmlns="http://www.w3.org/2000/svg" xmlns:xlink="http://www.w3.org/1999/xlink" version="1.2" width="210.00mm" height="297.00mm" viewBox="0.0000 -0.0000 119.5016 169.0094">
<style type="text/css">
<![CDATA[
tspan { white-space: pre; }
]]>
</style>
<g transform="translate(5.6906, 11.0453)">
<path transform="scale(0.0060, -0.0060)" d="M264 -594c47 0 165 26 165 246c0 32 -2 64 -5 96c-5 -1 -44 -8 -89 -8c-193 0 -333 178 -333 372c0 178 133 306 251 440c-27 93 -49 170 -49 345c0 116 55 226 150 295c5 4 11 4 16 0c67 -81 132 -246 132 -359c0 -144 -87 -256 -183 -365c20 -69 39 -138 55 -208
c2 0 7 1 15 1c154 0 254 -127 254 -259c0 -112 -73 -212 -180 -245c3 -36 5 -72 5 -108c0 -19 0 -37 -1 -56c-7 -120 -89 -226 -206 -226c-108 0 -195 87 -195 195c0 58 53 104 112 104c54 0 95 -48 95 -104c0 -52 -43 -95 -95 -95c-12 0 -24 4 -35 9c26 -41 70 -70 121 -70
zM459 -205c71 24 117 92 117 166c0 92 -69 184 -179 193c1 -5 45 -212 62 -359zM71 31c0 -146 142 -251 267 -251c1 0 46 0 82 6c-7 63 -28 201 -64 367c-79 -9 -125 -62 -125 -121c0 -44 26 -92 82 -124c4 -4 7 -9 7 -14c0 -11 -9 -21 -20 -21c-14 0 -125 62 -125 186
c0 88 57 173 158 196c-14 60 -30 119 -46 178c-108 -121 -216 -242 -216 -402zM411 1050c-99 -50 -161 -151 -161 -262c0 -59 11 -123 33 -200c82 97 149 198 149 325c0 35 0 69 -21 137z" fill="currentColor"/>
</g>
<g transform="rotate(-30.0000, 12.6723, 9.0816)">
<g transform="translate(10.8798, 11.0453)">
<text font-family="serif" font-weight="bold" font-size="5.5005" text-anchor="start" fill="currentColor">
<tspan>Б</tspan>
</text>
</g>
</g>
<g transform="translate(15.8065, 11.7953)">
<text font-family="serif" font-weight="bold" font-size="5.5005" text-anchor="start" fill="currentColor">
<tspan>а</tspan>
</text>
</g>
<g transform="translate(19.6843, 10.2953)">
<text font-family="serif" font-weight="bold" font-size="5.5005" text-anchor="start" fill="currentColor">
<tspan>я</tspan>
</text>
</g>
<g transform="rotate(30.0000, 26.5978, 9.0816)">
<g transform="translate(24.3444, 11.0453)">
<text font-family="serif" font-weight="bold" font-size="5.5005" text-anchor="start" fill="currentColor">
<tspan>Н</tspan>
</text>
</g>
</g>
<g transform="translate(30.0461, 165.0670)">
<a xlink:href="https://lilypond.org/">
<rect x="0.0000" y="-0.5280" width="59.4094" height="2.2001" fill="none" stroke="none" stroke-width="0.0"/>
</a>
</g>
<g transform="translate(30.0461, 165.0670)">
<text font-family="serif" font-size="2.2001" text-anchor="start" fill="currentColor">
<tspan>Music engraving by LilyPond 2.23.11—www.lilypond.org</tspan>
</text>
</g>
</svg>
